<svg id="Layer_1" data-name="Layer 1" xmlns="http://www.w3.org/2000/svg" viewBox="0 0 692.11 286.36"><defs><style>.cls-1{fill:#3b3e48;}</style></defs><path class="cls-1" d="M602.18,128.59c-11.7,2.7-42.6,4.2-42.6,4.2l-3.8,12.2s15.3-1.3,26.5-.2c0,0,3.6-.3,4,4a67.67,67.67,0,0,1-.3,9s-.3,2.7-4,3.4c-4.3.7-33.3,2-33.3,2L544,179s-1.7,3.6,2.19,2.6c3.6-1,34-6.8,38-6,4.2,1,9,6.8,7.6,12-1.6,6.3-32,25.69-50.39,24.39,0,0-9.7.6-17.8-12.5-7.8-12.49,2.7-36,2.7-36s-4.7-11-1.2-15c0,0,2-1.7,8-2.2l7.5-15.4s-8.5.5-13.5-5.7c-4.6-6-5-8.6-1.4-10.2,3.8-2,39-8.3,63.19-7.5,0,0,8.5-1,16,13.7,0,0,3.4,6-2.6,7.4M511,187.79c-3,7.3-11.3,15-21.3,10.29-10.2-4.79-26.3-37.59-26.3-37.59s-6-12.2-7.2-11.8c0,0-1.3-2.4-2,11-1,13.3.2,39.19-5.3,43.29-5,4-11,2.3-14.4-2.4-2.8-4.7-4-16-2.4-35.69,1.8-19.7,6.3-40.7,12-47.2,6-6.6,10.8-1.8,12.6,0,0,0,7.7,7,20.7,27.7l2.2,3.8s11.8,19.7,13,19.6c0,0,1,1,1.8.2,1.2-.3.8-6.7.8-6.7S493,141,482,105a17.88,17.88,0,0,1-.5-9c1-4,5.3-2,5.3-2s16.6,8,24.7,35,2.6,51.5-.4,58.8m-81.5-69.3c-1.6,2.8-2.3,6.7-9.2,7.8,0,0-67,4.7-70.29,9.4,0,0-2.2,2.8,1.4,3.5,3.8.8,19,2.8,26.2,3.2,7.8,0,34,.2,43.59,12,0,0,5.5,5.6,5.3,18.3-.2,13-2.5,17.6-7.6,22.3-5.29,4.39-50.69,24.79-80-6.4,0,0-13.4-15,4.7-26.4,0,0,13-8,46.3,1.3,0,0,10,3.6,9.6,7.3-.6,4-8.3,8-19.5,7.8a38.49,38.49,0,0,1-17.2-4.6c1.5.5-11.7-6.4-15.8-1.7-4,4.4-3,7,1,9.7,10,5.8,49.3,3.7,61-9.4,0,0,4.7-5.3-2.4-9.6-7-4-27.4-6.5-35.3-6.8-7.5-.4-35.6,0-39.8-7.3,0,0-4-5.2.4-19.4,4.6-15,37.3-20.8,51.5-22,0,0,39-1.6,46.29,6.4a5.26,5.26,0,0,1-.2,4.5M319,206.38c-4.7,3.5-14.7,2-17.6-2-2.8-3.5-3.8-17.29-3.3-39,.7-22.2,1-49.4,6-53.8s8-.5,10,2.4,4.6,6.3,5,13.2c.6,7,2.3,43,2.3,43s2.2,32.79-2.3,36.19m9.9-117c-13.8,4.7-23.2,3.2-31.2-.3-3.5,6.3-5.6,8.2-8.2,8.6-4,.4-7.49-6-8-8-.8-1.5-2.7-4.2-.4-10.3a23.29,23.29,0,0,1-7-22.69c1.8-7.4,15-35.2,55-38.5,0,0,19.6-1.4,23,9h.6s19,0,18.6,17c0,17-21,38.19-42.4,45.49M346.8,41c-12.6,2-32,18.8-41.3,32.69,14.3,2.6,39.3,1.6,50.5-21,0,0,5.3-14.2-9.2-11.7M291.5,52c-4,6.5-4.2,10.4-2.3,13,4.7-7,13-18,25.5-26.6-9.6,1-17.7,5-23.2,13.6M632.18,205.68c-9.2,22.6-17,45.5-21.5,79.8,0,0-1,6.7-6.5,4.5-5.5-2-14.5-11-16.5-23.7-2-16.6,5.4-44.6,20.5-76.79-4.4-7-7.5-17.4-5-32,0,0,4-27,31-51.4,0,0,3.2-2.7,5-1.8,2.2,1,1.3,9.6-.5,14-1.6,4.2-13.6,25-13.6,25s-7.5,14.2-5.4,25.3c14.2-21.8,46.5-66,66.49-52,12.7,9,12.7,38,3.2,54.8-7.5,13.3-28.69,40.79-57,34.39m41.6-68c-7.4,8-20.6,23.2-31,43.8,11-1.2,21.7-7.3,25-10.4,5.3-4.7,17.49-17.4,15.59-34.2,0,0-1.2-8.8-9.59.8M226,217.48c-35.4,10.8-68.8,5.8-87,1-.5,7.4-1.3,10.5-2.5,11.7-1.4,1.6-13,8.2-19.4-1.2-2.8-4.5-4.2-12.6-5-20-41-18.59-60-46-60.6-47-1-1-10.3-10.7-1-22.7,8.7-10.8,37.5-21.7,63.3-26,1-22,3.4-39,6.5-46.5,3.7-9,8.4-1,12.6,5,3.4,4.5,5.5,23.8,5.7,39.2,16.79-.8,27,.4,45.69,4,24.6,4.2,41,16.8,39.7,31-1.2,14-14,19.8-19,20.2s-13-3.3-13-3.3c-5.6-2.6-.5-5,6-7.8,7.2-3.5,5.6-7,5.6-7-2.6-8-34.5-13.3-66.19-13.3,0,17.5.7,46.5,1.2,63.39a178.83,178.83,0,0,0,38.79,3.3s81-2.3,83.3-54c2.5-51.8-81-101.39-142.49-117C56.82,14.4,22,25.8,19,27.3c-3.3,1.6-.3,2.2-.3,2.2A62.56,62.56,0,0,1,28,32c6,2,1.2,5,1.2,5C18.73,40.6,7,38.5,4.73,33.7s1.5-9,6-15.3c4.2-6.5,9-6.3,9-6.3,76-26.5,168.78,21,168.78,21,86.8,43.79,101.59,95.29,100,115.29-1.4,19.7-9,53-62.49,69.19M59,146c-8.6,4-2.6,10.4-2.6,10.4,16.2,17.3,36,28.2,55,35,2.2-30,2-40.7,2-55.8C84,137.59,67,142.39,59,146" transform="translate(-4.03 -4.06)"/></svg>